HIERARCHY
ROOT Hips
{
	OFFSET 30.010300 -23.524015 92.717590
	CHANNELS 6 Xposition Yposition Zposition Xrotation Yrotation Zrotation
	JOINT spine
	{
		OFFSET 0.000000 -0.429888 7.475601
		CHANNELS 3 Xrotation Yrotation Zrotation
		JOINT spine1
		{
			OFFSET 0.000000 0.000000 9.923012
			CHANNELS 3 Xrotation Yrotation Zrotation
			JOINT spine2
			{
				OFFSET 0.000000 -0.000002 9.508041
				CHANNELS 3 Xrotation Yrotation Zrotation
				JOINT Neck
				{
					OFFSET 0.000000 -1.163843 24.411110
					CHANNELS 3 Xrotation Yrotation Zrotation
					JOINT Head
					{
						OFFSET 0.000000 -0.000002 7.375229
						CHANNELS 3 Xrotation Yrotation Zrotation
						End Site
						{
							OFFSET 0.000000 5.887407 17.852203
						}
					}
				}
				JOINT RightShoulder
				{
					OFFSET -4.003559 0.557467 10.267906
					CHANNELS 3 Xrotation Yrotation Zrotation
					JOINT RightArm
					{
						OFFSET 0.000000 -0.000002 13.467300
						CHANNELS 3 Xrotation Yrotation Zrotation
						JOINT RightArmRoll
						{
							OFFSET 0.000000 -0.000002 6.798584
							CHANNELS 3 Xrotation Yrotation Zrotation
							JOINT RightForeArm
							{
								OFFSET 0.000000 -0.000004 19.801804
								CHANNELS 3 Xrotation Yrotation Zrotation
								JOINT RightForeArmRoll
								{
									OFFSET 0.000000 0.000000 7.629059
									CHANNELS 3 Xrotation Yrotation Zrotation
									JOINT RightHand
									{
										OFFSET 0.000000 -0.000002 15.309799
										CHANNELS 3 Xrotation Yrotation Zrotation
										End Site
										{
											OFFSET 0.000000 0.000000 0.100006
										}
									}
								}
							}
						}
					}
				}
				JOINT LeftShoulder
				{
					OFFSET 4.003559 0.557467 10.267906
					CHANNELS 3 Xrotation Yrotation Zrotation
					JOINT LeftArm
					{
						OFFSET 0.000000 -0.000002 13.467300
						CHANNELS 3 Xrotation Yrotation Zrotation
						JOINT LeftArmRoll
						{
							OFFSET 0.000000 -0.000002 6.798584
							CHANNELS 3 Xrotation Yrotation Zrotation
							JOINT LeftForeArm
							{
								OFFSET 0.000000 -0.000004 19.801804
								CHANNELS 3 Xrotation Yrotation Zrotation
								JOINT LeftForeArmRoll
								{
									OFFSET 0.000000 0.000000 7.629059
									CHANNELS 3 Xrotation Yrotation Zrotation
									JOINT LeftHand
									{
										OFFSET 0.000000 -0.000002 15.309799
										CHANNELS 3 Xrotation Yrotation Zrotation
										End Site
										{
											OFFSET 0.000000 0.000000 0.100006
										}
									}
								}
							}
						}
					}
				}
			}
		}
	}
	JOINT RightUpLeg
	{
		OFFSET -6.626091 1.019270 -1.215042
		CHANNELS 3 Xrotation Yrotation Zrotation
		JOINT RightUpLegRoll
		{
			OFFSET 0.000000 -0.000002 17.951698
			CHANNELS 3 Xrotation Yrotation Zrotation
			JOINT RightLeg
			{
				OFFSET 0.000000 0.000004 -22.230400
				CHANNELS 3 Xrotation Yrotation Zrotation
				JOINT RightLegRoll
				{
					OFFSET 0.000000 -0.000004 22.303200
					CHANNELS 3 Xrotation Yrotation Zrotation
					JOINT RightFoot
					{
						OFFSET 0.000000 -0.000004 18.563606
						CHANNELS 3 Xrotation Yrotation Zrotation
						JOINT RightToeBase
						{
							OFFSET 0.000000 -0.000002 15.518295
							CHANNELS 3 Xrotation Yrotation Zrotation
							End Site
							{
								OFFSET 0.006578 0.866261 7.515381
							}
						}
					}
				}
			}
		}
	}
	JOINT LeftUpLeg
	{
		OFFSET 6.626091 1.019270 -1.215042
		CHANNELS 3 Xrotation Yrotation Zrotation
		JOINT LeftUpLegRoll
		{
			OFFSET 0.000000 -0.000002 17.951797
			CHANNELS 3 Xrotation Yrotation Zrotation
			JOINT LeftLeg
			{
				OFFSET 0.000000 -0.000004 22.230301
				CHANNELS 3 Xrotation Yrotation Zrotation
				JOINT LeftLegRoll
				{
					OFFSET 0.000000 -0.000004 22.509293
					CHANNELS 3 Xrotation Yrotation Zrotation
					JOINT LeftFoot
					{
						OFFSET 0.000000 -0.000004 18.357498
						CHANNELS 3 Xrotation Yrotation Zrotation
						JOINT LeftToeBase
						{
							OFFSET 0.000000 -0.000002 15.518295
							CHANNELS 3 Xrotation Yrotation Zrotation
							End Site
							{
								OFFSET -0.029476 0.866261 7.515396
							}
						}
					}
				}
			}
		}
	}
}
MOTION
Frames: 10
Frame Time: 0.041667
35.942902 -23.600922 93.914482 1.286182 -3.297065 72.904080 -2.095382 0.547732 1.003647 -0.197149 1.068803 2.021716 1.447633 1.092941 2.008791 -10.280165 8.784048 -0.748937 12.236775 -9.458059 -1.000241 -12.993402 -43.901806 -14.700604 78.719624 20.387888 111.849607 0.000013 0.000010 0.000003 41.382491 1.780962 -3.864095 0.000001 -0.000000 -3.003041 -5.000151 -8.000008 0.000016 -24.428424 63.249348 28.726632 111.099420 64.038727 -122.547514 -0.000004 0.000023 0.000005 0.147869 9.465161 0.623937 0.000007 -0.000000 3.006030 -5.000311 7.998752 -0.000151 3.176664 -182.972449 -1.388667 179.999991 -0.000005 -1.230002 165.765017 -2.287616 -0.881182 -0.000003 0.000004 0.253509 71.297039 6.796853 2.240373 28.397843 -7.447991 -1.627772 -5.396460 -181.291252 1.962038 -0.000006 -0.000004 -0.880702 -7.716719 3.847507 0.525894 0.000001 -0.000001 -0.078690 66.930130 -6.853752 -2.349367 25.456969 7.355651 -0.000006 
35.916306 -23.615316 93.927086 1.250009 -3.245372 72.912768 -2.091002 0.544209 0.997988 -0.188276 1.062174 2.010270 1.456512 1.086179 1.997424 -10.508600 8.804047 -0.745043 12.298135 -9.522056 -1.000390 -13.042408 -43.674412 -14.754196 78.797222 20.419110 111.726875 0.000010 0.000007 0.000008 40.891721 1.848400 -3.869088 -0.000002 0.000003 -3.003042 -5.000157 -8.000008 0.000013 -24.472286 63.279080 28.776007 110.971238 63.979120 -122.289961 -0.000005 0.000022 0.000006 0.170065 9.557590 0.608334 0.000007 0.000000 3.004769 -5.000311 7.998752 -0.000151 3.162650 -183.026407 -1.422005 179.999991 -0.000004 -1.229006 165.828551 -2.297955 -0.878087 -0.000001 0.000005 0.251744 71.292155 6.799048 2.235435 28.276210 -7.440514 -1.561363 -5.386536 -181.358980 1.938245 -0.000005 -0.000005 -0.879923 -7.609700 3.848152 0.518933 0.000001 -0.000001 -0.077543 66.932275 -6.853915 -2.350368 25.456969 7.355649 -0.000006 
35.895203 -23.635715 93.938896 1.213526 -3.191468 72.923963 -2.087493 0.540653 0.991955 -0.181131 1.055424 1.998086 1.463659 1.079277 1.985325 -10.726993 8.822343 -0.742607 12.352929 -9.585366 -1.001360 -13.085096 -43.459568 -14.800059 78.874246 20.435791 111.589950 0.000011 0.000010 0.000005 40.428883 1.904784 -3.870411 0.000000 -0.000000 -3.003044 -5.000154 -8.000007 0.000010 -24.509634 63.309167 28.817842 110.848185 63.924287 -122.039211 -0.000003 0.000024 0.000005 0.198852 9.649425 0.592888 0.000009 0.000000 3.004769 -5.000311 7.998753 -0.000151 3.148256 -183.083385 -1.456978 179.999991 -0.000005 -1.227995 165.894722 -2.308322 -0.874874 -0.000003 0.000004 0.249957 71.286363 6.801350 2.230072 28.158054 -7.433583 -1.496925 -5.384782 -181.427678 1.915177 -0.000006 -0.000004 -0.879217 -7.512963 3.847655 0.512581 0.000001 -0.000001 -0.076524 66.937753 -6.854038 -2.351050 25.456969 7.355650 -0.000007 
35.866806 -23.650618 93.942184 1.177125 -3.135902 72.937295 -2.084750 0.537171 0.985511 -0.175527 1.048745 1.985081 1.469258 1.072447 1.972404 -10.934750 8.839629 -0.740976 12.400456 -9.648897 -1.002539 -13.119993 -43.257046 -14.836163 78.951570 20.437126 111.441517 0.000009 0.000009 0.000006 39.998517 1.949137 -3.868061 0.000001 0.000001 -3.003040 -5.000154 -8.000007 0.000012 -24.541223 63.339459 28.852997 110.730528 63.874194 -121.795387 -0.000004 0.000022 0.000005 0.235332 9.740832 0.577673 0.000008 0.000000 3.004770 -5.000313 7.998753 -0.000151 3.133622 -183.142329 -1.493163 179.999991 -0.000005 -1.226995 165.963379 -2.318716 -0.871528 -0.000003 0.000005 0.248144 71.279253 6.803601 2.224875 28.044692 -7.427196 -1.434992 -5.390996 -181.495366 1.892809 -0.000005 -0.000004 -0.878594 -7.427001 3.846099 0.506857 0.000001 -0.000001 -0.075637 66.946666 -6.854134 -2.351614 25.456969 7.355653 -0.000007 
35.839203 -23.656618 93.950287 1.141162 -3.079242 72.952301 -2.082677 0.533871 0.978611 -0.171281 1.042345 1.971174 1.473515 1.065877 1.958572 -11.131487 8.856553 -0.739456 12.440242 -9.713531 -1.003264 -13.145762 -43.066901 -14.860647 79.030261 20.421902 111.282387 0.000009 0.000009 0.000003 39.605323 1.980463 -3.862077 -0.000000 0.000002 -3.003041 -5.000157 -8.000013 0.000009 -24.567646 63.370065 28.882196 110.617454 63.828753 -121.557437 -0.000006 0.000022 0.000006 0.280571 9.831976 0.562758 0.000008 0.000000 3.004769 -5.000311 7.998752 -0.000151 3.118909 -183.201287 -1.530091 179.999991 -0.000005 -1.226000 166.034030 -2.328165 -0.868846 -0.000002 0.000004 0.246317 71.270469 6.805639 2.220350 27.936937 -7.421419 -1.376167 -5.404960 -181.563039 1.871367 -0.000004 -0.000005 -0.878066 -7.352277 3.843563 0.501765 0.000001 -0.000001 -0.074880 66.959650 -6.854152 -2.351907 25.456972 7.355654 -0.000007 
35.810200 -23.677517 93.954895 1.105990 -3.022042 72.968612 -2.081198 0.530860 0.971202 -0.168200 1.036425 1.956272 1.476603 1.059778 1.943744 -11.316510 8.873789 -0.737371 12.471808 -9.780162 -1.002860 -13.160951 -42.888899 -14.871473 79.111233 20.389064 111.117458 0.000012 0.000013 0.000004 39.253763 1.997766 -3.852418 0.000001 0.000004 -3.003044 -5.000153 -8.000008 0.000016 -24.589333 63.400691 28.905975 110.509148 63.787827 -121.325388 -0.000007 0.000023 0.000005 0.335665 9.923004 0.548205 0.000009 0.000000 3.004769 -5.000312 7.998751 -0.000151 3.104243 -183.260232 -1.567423 179.999991 -0.000005 -1.225004 166.106403 -2.337633 -0.865057 -0.000003 0.000003 0.244476 71.259753 6.807305 2.216780 27.836108 -7.416221 -1.321018 -5.426494 -181.628677 1.850825 -0.000004 -0.000004 -0.877643 -7.289297 3.840147 0.497324 0.000001 -0.000001 -0.074251 66.976801 -6.854140 -2.351935 25.456971 7.355649 -0.000005 
35.776405 -23.693018 93.960594 1.071968 -2.964855 72.985749 -2.080206 0.528247 0.963254 -0.166100 1.031195 1.940302 1.478700 1.054358 1.927833 -11.489532 8.891964 -0.734006 12.494476 -9.849618 -1.000735 -13.164221 -42.723096 -14.866795 79.195265 20.337803 110.947701 0.000010 0.000010 0.000006 38.948519 2.000088 -3.839068 0.000001 0.000003 -3.003044 -5.000156 -8.000009 0.000014 -24.606858 63.431461 28.925045 110.404769 63.751340 -121.098188 -0.000004 0.000023 0.000005 0.401704 10.014060 0.534072 0.000007 0.000000 3.004770 -5.000308 7.998752 -0.000151 3.089781 -183.318207 -1.604742 179.999991 -0.000004 -1.224005 166.180169 -2.347106 -0.862202 -0.000002 0.000004 0.242624 71.246625 6.808502 2.214578 27.743004 -7.411659 -1.270150 -5.455374 -181.693305 1.831400 -0.000004 -0.000005 -0.877341 -7.238523 3.835917 0.493543 0.000001 -0.000001 -0.073758 66.998521 -6.854025 -2.351757 25.456967 7.355648 -0.000006 
35.751503 -23.710318 93.941994 1.039441 -2.908234 73.003234 -2.079608 0.526140 0.954714 -0.164794 1.026865 1.923164 1.480019 1.049820 1.910749 -11.649971 8.911726 -0.728652 12.507668 -9.922941 -0.996208 -13.154136 -42.569253 -14.844605 79.283408 20.266892 110.775997 0.000009 0.000009 0.000005 38.694186 1.986463 -3.821912 0.000000 0.000001 -3.003045 -5.000155 -8.000009 0.000012 -24.621058 63.461986 28.940280 110.304748 63.719327 -120.876071 -0.000004 0.000023 0.000004 0.479767 10.105454 0.520401 0.000009 0.000000 3.004769 -5.000312 7.998752 -0.000151 3.075664 -183.375157 -1.641689 179.999991 -0.000005 -1.221997 166.254946 -2.355631 -0.858034 -0.000003 0.000005 0.240764 71.230902 6.808973 2.214321 27.658945 -7.407699 -1.224097 -5.491414 -181.755924 1.813161 -0.000005 -0.000005 -0.877167 -7.200437 3.830980 0.490427 0.000001 -0.000001 -0.073402 67.025165 -6.853877 -2.351166 25.456969 7.355654 -0.000007 
35.730206 -23.720518 93.950691 1.007240 -2.850242 73.022488 -2.079973 0.524346 0.945492 -0.165423 1.022965 1.904673 1.479396 1.045711 1.892304 -11.793606 8.931152 -0.723056 12.508227 -9.999768 -0.990417 -13.129079 -42.428749 -14.803178 79.373321 20.170976 110.591787 0.000009 0.000010 0.000004 38.487385 1.953648 -3.799906 -0.000002 0.000001 -3.003044 -5.000155 -8.000009 0.000015 -24.627482 63.491383 28.946676 110.211598 63.694362 -120.661138 -0.000006 0.000022 0.000005 0.572588 10.197603 0.506878 0.000010 0.000000 3.004769 -5.000311 7.998752 -0.000151 3.061898 -183.433118 -1.679740 179.999991 -0.000005 -1.221001 166.333042 -2.364193 -0.854716 -0.000002 0.000004 0.238887 71.212570 6.809037 2.215151 27.581894 -7.404219 -1.181780 -5.538049 -181.818488 1.796321 -0.000005 -0.000004 -0.877154 -7.178589 3.824367 0.488192 0.000001 -0.000001 -0.073206 67.058374 -6.853643 -2.350148 25.456965 7.355651 -0.000007 
35.696709 -23.739519 93.969193 0.974127 -2.788833 73.044693 -2.081845 0.522599 0.935569 -0.169041 1.018965 1.884786 1.475783 1.041464 1.872468 -11.918240 8.948082 -0.719267 12.494368 -10.079197 -0.984950 -13.089543 -42.302807 -14.743675 79.461786 20.047339 110.384859 0.000009 0.000009 0.000004 38.320209 1.900280 -3.772539 -0.000000 0.000001 -3.003043 -5.000153 -8.000008 0.000012 -24.622801 63.518690 28.940195 110.127812 63.678776 -120.455864 -0.000003 0.000022 0.000005 0.680916 10.290991 0.493125 0.000009 0.000000 3.004770 -5.000310 7.998752 -0.000151 3.048279 -183.495081 -1.720428 179.999991 -0.000005 -1.219007 166.416630 -2.371827 -0.850902 -0.000002 0.000003 0.236978 71.191813 6.809135 2.215937 27.509017 -7.401069 -1.141743 -5.598106 -181.881995 1.780861 -0.000005 -0.000005 -0.877323 -7.175048 3.815309 0.486983 0.000001 -0.000001 -0.073189 67.098870 -6.853269 -2.348848 25.456964 7.355653 -0.000006 
